<svg xmlns="http://www.w3.org/2000/svg" viewBox="0 0 1500.07 219.52"><defs><style>.cls-1{fill:#519749;}.cls-2{fill:#fff;}</style></defs><g id="Capa_2" data-name="Capa 2"><g id="Capa_1-2" data-name="Capa 1"><path class="cls-1" d="M139.41,14a104.44,104.44,0,1,0,69.45,98.42H104.43Z"/><path class="cls-1" d="M161.55,0l-35,98.42H231A104.47,104.47,0,0,0,161.55,0Z"/><path class="cls-1" d="M404.76,7.36V26H323.58V82.17H389.3v17.94H323.58v57.7h81.18v18.64H300.57V7.36Z"/><path class="cls-1" d="M518.5,176.45a5.35,5.35,0,0,1-5.66-4.37L511,157.57a63.11,63.11,0,0,1-17.52,14.93,45,45,0,0,1-22.6,5.6,43.2,43.2,0,0,1-18.64-3.95,38.67,38.67,0,0,1-14.28-11.62,55.62,55.62,0,0,1-9.09-19.12,98.57,98.57,0,0,1-3.18-26.31,82.45,82.45,0,0,1,3.54-24.6,60,60,0,0,1,10.21-19.77A46.82,46.82,0,0,1,477.32,54.8q11,0,18.76,3.72A44.76,44.76,0,0,1,510,69V2.65h21v173.8Zm-40.71-15.34a33.83,33.83,0,0,0,18-4.72A51.71,51.71,0,0,0,510,143.06V85.24q-5.78-7.78-12.68-10.91A36.53,36.53,0,0,0,482,71.2q-16.76,0-25.72,11.92t-9,34a86.25,86.25,0,0,0,2,20,38.35,38.35,0,0,0,5.9,13.69,23.13,23.13,0,0,0,9.55,7.84A32.14,32.14,0,0,0,477.79,161.11Z"/><path class="cls-1" d="M606.52,54.92a59.45,59.45,0,0,1,14.57,1.71,45.7,45.7,0,0,1,12.33,5h32.45v7.79q0,3.9-5,5l-13.57,1.88a36.43,36.43,0,0,1,4,17.11A36.81,36.81,0,0,1,648,109.25a36,36,0,0,1-9.33,12.21,41.73,41.73,0,0,1-14.15,7.79,57,57,0,0,1-18,2.72,60.39,60.39,0,0,1-15.81-2,20.15,20.15,0,0,0-5.72,5.25,9.63,9.63,0,0,0-2,5.49,7.45,7.45,0,0,0,3.42,6.64,23.7,23.7,0,0,0,9.09,3.24,76.29,76.29,0,0,0,12.86,1H623.1a81.32,81.32,0,0,1,14.69,1.32,44.34,44.34,0,0,1,12.86,4.3,24.07,24.07,0,0,1,9.09,8.24q3.42,5.25,3.42,13.61a31.86,31.86,0,0,1-3.84,15,40.56,40.56,0,0,1-11,13,56.69,56.69,0,0,1-17.58,9.07,75.17,75.17,0,0,1-23.48,3.41,90.63,90.63,0,0,1-23-2.6,53.57,53.57,0,0,1-16.34-7,30.36,30.36,0,0,1-9.74-10.1,24,24,0,0,1-3.24-12,21.69,21.69,0,0,1,5.6-15.06q5.61-6.2,15.4-9.86a21.07,21.07,0,0,1-8.08-6.3q-3-3.94-3-10.55a16.6,16.6,0,0,1,.94-5.36,21.27,21.27,0,0,1,2.89-5.47,30.84,30.84,0,0,1,11.39-9.55,37.17,37.17,0,0,1-13.86-13.15,36,36,0,0,1-5-19.18,36.67,36.67,0,0,1,3.37-15.87A34.92,34.92,0,0,1,574,65.36a43,43,0,0,1,14.33-7.73A58.48,58.48,0,0,1,606.52,54.92Zm37.29,127.6a10.59,10.59,0,0,0-2.48-7.34,15.85,15.85,0,0,0-6.73-4.28,48,48,0,0,0-9.79-2.22,90.73,90.73,0,0,0-11.68-.73H600.62a45.57,45.57,0,0,1-12.15-1.59,34.61,34.61,0,0,0-10.92,7.8,15.79,15.79,0,0,0-4.18,11,14.47,14.47,0,0,0,2.06,7.51,17.63,17.63,0,0,0,6.31,6,37,37,0,0,0,10.68,4,68.68,68.68,0,0,0,15.16,1.48,66.93,66.93,0,0,0,15.22-1.57,37.57,37.57,0,0,0,11.39-4.45,21.5,21.5,0,0,0,7.14-6.86A16.3,16.3,0,0,0,643.81,182.52ZM606.52,118a33.08,33.08,0,0,0,11.27-1.77,22.84,22.84,0,0,0,8.2-5,20.46,20.46,0,0,0,5-7.61A27.69,27.69,0,0,0,632.6,94q0-11-6.67-17.46T606.52,70q-12.63,0-19.29,6.49T580.56,94a26.82,26.82,0,0,0,1.71,9.74,20.85,20.85,0,0,0,5,7.61,22.84,22.84,0,0,0,8.14,5A32.14,32.14,0,0,0,606.52,118Z"/><path class="cls-1" d="M734.19,55A53.37,53.37,0,0,1,754,58.63,44.34,44.34,0,0,1,769.7,69,47.23,47.23,0,0,1,780,85.77a64.72,64.72,0,0,1,3.71,22.72q0,5-1.06,6.6c-.71,1.11-2,1.65-4,1.65H699.14a66,66,0,0,0,3.07,19.71,40.11,40.11,0,0,0,7.79,14,31.1,31.1,0,0,0,11.8,8.38,40.47,40.47,0,0,0,15.34,2.77,45,45,0,0,0,13.63-1.83,65,65,0,0,0,9.85-3.95,74.2,74.2,0,0,0,6.9-4A9.15,9.15,0,0,1,772.3,150a4.63,4.63,0,0,1,4,2l5.9,7.67a39.88,39.88,0,0,1-9.32,8.21,58.37,58.37,0,0,1-11.62,5.72A74.45,74.45,0,0,1,748.46,177a77.84,77.84,0,0,1-13.09,1.12,60.81,60.81,0,0,1-22.83-4.19,50.06,50.06,0,0,1-18.06-12.27,56.44,56.44,0,0,1-11.86-20,81.35,81.35,0,0,1-4.24-27.37,69.61,69.61,0,0,1,3.83-23.37,55.16,55.16,0,0,1,11-18.82,50.82,50.82,0,0,1,17.58-12.5A57.73,57.73,0,0,1,734.19,55Zm.47,15.46q-15.23,0-23.95,8.79t-10.86,24.37h65a42.42,42.42,0,0,0-2-13.39A29.78,29.78,0,0,0,757,79.75a26.38,26.38,0,0,0-9.5-6.84A32.07,32.07,0,0,0,734.66,70.49Z"/><path class="cls-2" d="M836.72,157.22h73.16v19.23h-96V7.36h22.89Z"/><path class="cls-2" d="M974.89,55a53.29,53.29,0,0,1,19.82,3.6A44.47,44.47,0,0,1,1010.41,69a47.36,47.36,0,0,1,10.32,16.75,64.71,64.71,0,0,1,3.72,22.72q0,5-1.06,6.6c-.71,1.11-2,1.65-4,1.65H939.85a65.65,65.65,0,0,0,3.07,19.71,40.1,40.1,0,0,0,7.78,14,31.25,31.25,0,0,0,11.8,8.38,40.5,40.5,0,0,0,15.34,2.77,45,45,0,0,0,13.63-1.83,64.14,64.14,0,0,0,9.85-3.95,73.21,73.21,0,0,0,6.91-4A9.12,9.12,0,0,1,1013,150a4.66,4.66,0,0,1,4,2l5.9,7.67a39.93,39.93,0,0,1-9.33,8.21,58.37,58.37,0,0,1-11.62,5.72,74.58,74.58,0,0,1-12.8,3.36,78,78,0,0,1-13.1,1.12,60.81,60.81,0,0,1-22.83-4.19,50,50,0,0,1-18-12.27,56.15,56.15,0,0,1-11.86-20,81.34,81.34,0,0,1-4.25-27.37,69.61,69.61,0,0,1,3.84-23.37,55,55,0,0,1,11-18.82,50.82,50.82,0,0,1,17.58-12.5A57.68,57.68,0,0,1,974.89,55Zm.47,15.46q-15.21,0-24,8.79t-10.85,24.37h65a42.42,42.42,0,0,0-2-13.39,29.76,29.76,0,0,0-5.89-10.51,26.46,26.46,0,0,0-9.5-6.84A32.12,32.12,0,0,0,975.36,70.49Z"/><path class="cls-2" d="M1135.36,176.45a5.35,5.35,0,0,1-5.66-4.37l-1.89-14.51a63.11,63.11,0,0,1-17.52,14.93,45,45,0,0,1-22.6,5.6,43.2,43.2,0,0,1-18.64-3.95,38.67,38.67,0,0,1-14.28-11.62,55.43,55.43,0,0,1-9.08-19.12,98.14,98.14,0,0,1-3.19-26.31A82.45,82.45,0,0,1,1046,92.5a60,60,0,0,1,10.21-19.77,46.82,46.82,0,0,1,37.93-17.93q11,0,18.76,3.72A44.91,44.91,0,0,1,1126.87,69V2.65h21v173.8Zm-40.71-15.34a33.83,33.83,0,0,0,18-4.72,51.88,51.88,0,0,0,14.22-13.33V85.24q-5.79-7.78-12.69-10.91a36.5,36.5,0,0,0-15.28-3.13q-16.76,0-25.72,11.92t-9,34a86.25,86.25,0,0,0,2,20,38.35,38.35,0,0,0,5.9,13.69,23.13,23.13,0,0,0,9.55,7.84A32.14,32.14,0,0,0,1094.65,161.11Z"/><path class="cls-2" d="M1223.38,54.92A59.45,59.45,0,0,1,1238,56.63a45.83,45.83,0,0,1,12.33,5h32.45v7.79q0,3.9-5,5l-13.57,1.88a36.43,36.43,0,0,1,4,17.11,36.81,36.81,0,0,1-3.36,15.87,36,36,0,0,1-9.33,12.21,41.73,41.73,0,0,1-14.15,7.79,57,57,0,0,1-18,2.72,60.34,60.34,0,0,1-15.81-2,20,20,0,0,0-5.72,5.25,9.63,9.63,0,0,0-1.95,5.49,7.45,7.45,0,0,0,3.42,6.64,23.7,23.7,0,0,0,9.09,3.24,76.29,76.29,0,0,0,12.86,1H1240a81.32,81.32,0,0,1,14.69,1.32,44.44,44.44,0,0,1,12.86,4.3,24.07,24.07,0,0,1,9.09,8.24Q1280,170.66,1280,179a31.86,31.86,0,0,1-3.84,15,40.56,40.56,0,0,1-11,13,56.69,56.69,0,0,1-17.58,9.07,75.17,75.17,0,0,1-23.48,3.41,90.63,90.63,0,0,1-22.95-2.6,53.57,53.57,0,0,1-16.34-7,30.27,30.27,0,0,1-9.74-10.1,24,24,0,0,1-3.24-12,21.69,21.69,0,0,1,5.6-15.06q5.61-6.2,15.4-9.86a21.07,21.07,0,0,1-8.08-6.3q-3-3.94-3-10.55a16.6,16.6,0,0,1,.94-5.36,21.27,21.27,0,0,1,2.89-5.47,30.84,30.84,0,0,1,11.39-9.55,37.17,37.17,0,0,1-13.86-13.15,36,36,0,0,1-5-19.18,36.81,36.81,0,0,1,3.36-15.87,35.16,35.16,0,0,1,9.38-12.15,43.13,43.13,0,0,1,14.34-7.73A58.48,58.48,0,0,1,1223.38,54.92Zm37.29,127.6a10.59,10.59,0,0,0-2.48-7.34,15.92,15.92,0,0,0-6.73-4.28,48,48,0,0,0-9.79-2.22A90.73,90.73,0,0,0,1230,168h-12.51a45.57,45.57,0,0,1-12.15-1.59,34.61,34.61,0,0,0-10.92,7.8,15.8,15.8,0,0,0-4.19,11,14.48,14.48,0,0,0,2.07,7.51,17.63,17.63,0,0,0,6.31,6,36.85,36.85,0,0,0,10.68,4,68.68,68.68,0,0,0,15.16,1.48,66.93,66.93,0,0,0,15.22-1.57,37.57,37.57,0,0,0,11.39-4.45,21.5,21.5,0,0,0,7.14-6.86A16.3,16.3,0,0,0,1260.67,182.52ZM1223.38,118a33.08,33.08,0,0,0,11.27-1.77,22.84,22.84,0,0,0,8.2-5,20.46,20.46,0,0,0,5-7.61,27.69,27.69,0,0,0,1.65-9.74q0-11-6.67-17.46T1223.38,70q-12.63,0-19.29,6.49T1197.42,94a26.82,26.82,0,0,0,1.71,9.74,20.85,20.85,0,0,0,5,7.61,22.84,22.84,0,0,0,8.14,5A32.14,32.14,0,0,0,1223.38,118Z"/><path class="cls-2" d="M1351.05,55a53.37,53.37,0,0,1,19.82,3.6A44.34,44.34,0,0,1,1386.56,69a47.23,47.23,0,0,1,10.33,16.75,64.72,64.72,0,0,1,3.71,22.72q0,5-1.06,6.6c-.71,1.11-2,1.65-4,1.65H1316a66,66,0,0,0,3.07,19.71,40.11,40.11,0,0,0,7.79,14,31.1,31.1,0,0,0,11.8,8.38,40.47,40.47,0,0,0,15.34,2.77,45,45,0,0,0,13.63-1.83,65,65,0,0,0,9.85-3.95,74.2,74.2,0,0,0,6.9-4,9.15,9.15,0,0,1,4.78-1.83,4.63,4.63,0,0,1,4,2l5.9,7.67a39.88,39.88,0,0,1-9.32,8.21,58.37,58.37,0,0,1-11.62,5.72,74.58,74.58,0,0,1-12.8,3.36,78,78,0,0,1-13.1,1.12,60.81,60.81,0,0,1-22.83-4.19,50.06,50.06,0,0,1-18.06-12.27,56.44,56.44,0,0,1-11.86-20,81.35,81.35,0,0,1-4.24-27.37,69.61,69.61,0,0,1,3.83-23.37,55.16,55.16,0,0,1,11-18.82,50.82,50.82,0,0,1,17.58-12.5A57.73,57.73,0,0,1,1351.05,55Zm.47,15.46q-15.23,0-24,8.79t-10.86,24.37h65a42.42,42.42,0,0,0-2-13.39,29.78,29.78,0,0,0-5.9-10.51,26.38,26.38,0,0,0-9.5-6.84A32.07,32.07,0,0,0,1351.52,70.49Z"/><path class="cls-2" d="M1427.39,176.45V56.92h12c2.28,0,3.85.44,4.72,1.3a7.91,7.91,0,0,1,1.77,4.48l1.42,18.65q6.14-12.51,15.16-19.53a35.74,35.74,0,0,1,30.15-5.9,31.3,31.3,0,0,1,7.43,3.13l-2.71,15.69a3.54,3.54,0,0,1-3.66,3,18.23,18.23,0,0,1-5.07-1.12,32,32,0,0,0-9.56-1.12q-11,0-18.35,6.37t-12.33,18.52v76.11Z"/></g></g></svg>